<svg xmlns="http://www.w3.org/2000/svg" viewBox="0 0 127.32 47.71">
  <title>logo</title>
  <g id="BCW">
    <g>
      <path d="M34.87,26.62A8.66,8.66,0,0,1,34.49,29a7,7,0,0,1-3.56,4.23,7.32,7.32,0,0,1-3.44.74H4.36a3.23,3.23,0,0,1-1.22-.23,3,3,0,0,1-1-.65,3,3,0,0,1-.65-1,3.08,3.08,0,0,1-.23-1.22V3.46a3,3,0,0,1,.23-1.19,3,3,0,0,1,.65-1,2.72,2.72,0,0,1,1-.65A3.05,3.05,0,0,1,4.36.39H24.75a8,8,0,0,1,2.41.4,7.16,7.16,0,0,1,2.4,1.28,6.92,6.92,0,0,1,1.86,2.28,7.39,7.39,0,0,1,.73,3.45V9a12.63,12.63,0,0,1-.54,3.48A11.42,11.42,0,0,1,29.88,16a10.73,10.73,0,0,1,1.93,1.53,10,10,0,0,1,1.59,2.06,10.72,10.72,0,0,1,1.07,2.65,12.28,12.28,0,0,1,.4,3.26Zm-6.09-1.17a5.8,5.8,0,0,0-.38-2.15,4.86,4.86,0,0,0-1-1.63,4.55,4.55,0,0,0-1.64-1,6.12,6.12,0,0,0-2.16-.36H9.82V14.13h11A6.15,6.15,0,0,0,23,13.76a4.46,4.46,0,0,0,2.68-2.67A6,6,0,0,0,26,9V7.8q0-1.32-1.26-1.32H7.38V27.91H27.49l.4,0a.91.91,0,0,0,.42-.14,1.05,1.05,0,0,0,.33-.4,1.76,1.76,0,0,0,.14-.77Z" transform="translate(-1.23 -0.39)" style="fill: #bdd546"/>
      <path d="M75.06,34h-22a9.37,9.37,0,0,1-1.82-.2,9.14,9.14,0,0,1-1.92-.62,8.78,8.78,0,0,1-1.82-1.09A7.4,7.4,0,0,1,46,30.47a7.9,7.9,0,0,1-1.07-2.2,9.51,9.51,0,0,1-.4-2.82V9a9.28,9.28,0,0,1,.2-1.82,9.76,9.76,0,0,1,.62-1.92,8.62,8.62,0,0,1,1.11-1.82,7.39,7.39,0,0,1,1.62-1.53A7.9,7.9,0,0,1,50.27.79a9,9,0,0,1,2.81-.4h22V6.48h-22a2.48,2.48,0,0,0-1.83.64A2.53,2.53,0,0,0,50.62,9V25.45a2.44,2.44,0,0,0,.64,1.81,2.47,2.47,0,0,0,1.82.65h22Z" transform="translate(-1.23 -0.39)" style="fill: #bdd546"/>
      <path d="M128.54.39l-5.62,31.5a3.22,3.22,0,0,1-.85,1.62,3,3,0,0,1-1.59.87,3.21,3.21,0,0,1-1.82-.22A2.88,2.88,0,0,1,117.32,33L106.16,14.66,95,33a2.78,2.78,0,0,1-1.09,1.06,3.08,3.08,0,0,1-1.49.37,3,3,0,0,1-3-2.53L83.75.39h6.19l4,22.2,9.61-15.33a2.78,2.78,0,0,1,1.09-1.06,3.08,3.08,0,0,1,1.49-.37,3,3,0,0,1,1.48.37,3.15,3.15,0,0,1,1.12,1.06l9.56,15.33,4-22.2Z" transform="translate(-1.23 -0.39)" style="fill: #bdd546"/>
    </g>
  </g>
  <g id="BESTCHANCETOWIN">
    <g>
      <path d="M1.23,48V38.06H2.61V48Zm.82,0V46.71H4.74a2.27,2.27,0,0,0,1.57-.43,1.42,1.42,0,0,0,.46-1.11v0A1.71,1.71,0,0,0,6.38,44a1.7,1.7,0,0,0-1.3-.44h-3V42.27h3c1,0,1.56-.48,1.56-1.43s-.58-1.49-1.75-1.49H2.05V38.06H5.14a2.94,2.94,0,0,1,2.19.73,2.67,2.67,0,0,1,.72,2,2.41,2.41,0,0,1-.43,1.36,2,2,0,0,1-1.38.8,2.1,2.1,0,0,1,1.43.81,2.53,2.53,0,0,1,.51,1.55v0a2.58,2.58,0,0,1-.79,2A3,3,0,0,1,5.26,48Z" transform="translate(-1.23 -0.39)" style="fill: #bdd546"/>
      <path d="M10.16,48V38.06h1.39V48Zm.68-8.61V38.06h5.7v1.33Zm0,4.34V42.4h4.95v1.33Zm0,4.27V46.67h5.7V48Z" transform="translate(-1.23 -0.39)" style="fill: #bdd546"/>
      <path d="M21.51,48.1a5.86,5.86,0,0,1-2-.31,5,5,0,0,1-1.63-.92l.87-1.06a4.06,4.06,0,0,0,1.25.73,4.22,4.22,0,0,0,1.48.25,3,3,0,0,0,1.68-.4,1.27,1.27,0,0,0,.59-1.13h0a1.18,1.18,0,0,0-.3-.87,1.74,1.74,0,0,0-.79-.44,8.91,8.91,0,0,0-1.07-.25c-.37-.06-.74-.14-1.12-.23a4,4,0,0,1-1.05-.4,2,2,0,0,1-.77-.79,2.78,2.78,0,0,1-.3-1.39h0a2.63,2.63,0,0,1,.93-2.15,4,4,0,0,1,2.6-.76,5,5,0,0,1,1.57.25A5.66,5.66,0,0,1,25,39l-.8,1.1a3.8,3.8,0,0,0-2.26-.83,2.65,2.65,0,0,0-1.58.41,1.32,1.32,0,0,0-.57,1.15h0a1.09,1.09,0,0,0,.33.85,2.11,2.11,0,0,0,.86.43q.53.15,1.14.27c.36.07.73.16,1.09.26a3.36,3.36,0,0,1,1,.45,2.12,2.12,0,0,1,.72.79,2.81,2.81,0,0,1,.27,1.32h0a2.55,2.55,0,0,1-1,2.13A4.29,4.29,0,0,1,21.51,48.1Z" transform="translate(-1.23 -0.39)" style="fill: #bdd546"/>
      <path d="M25.78,39.39V38.06h7v1.33ZM28.59,48V38.87H30V48Z" transform="translate(-1.23 -0.39)" style="fill: #bdd546"/>
      <path d="M37.14,48.1a3.49,3.49,0,0,1-1.82-.46,3.2,3.2,0,0,1-1.21-1.29,4.31,4.31,0,0,1-.43-2V41.67a4.32,4.32,0,0,1,.43-2,3.2,3.2,0,0,1,1.21-1.29A3.49,3.49,0,0,1,37.14,38a3.34,3.34,0,0,1,2.77,1.4,3.94,3.94,0,0,1,.66,1.55H39.14a2.12,2.12,0,0,0-.44-.84,2.1,2.1,0,0,0-.71-.55,2,2,0,0,0-2.32.44,2.53,2.53,0,0,0-.56,1.71V44.4a2.52,2.52,0,0,0,.56,1.7,1.84,1.84,0,0,0,1.47.64,2.24,2.24,0,0,0,1.23-.37,1.83,1.83,0,0,0,.77-1.08h1.43a3.76,3.76,0,0,1-.66,1.48,3.27,3.27,0,0,1-1.2,1A3.39,3.39,0,0,1,37.14,48.1Z" transform="translate(-1.23 -0.39)" style="fill: #bdd546"/>
      <path d="M42.55,48V38.06h1.39V48Zm.87-4.23V42.44h5.51v1.33ZM48.2,48V38.06h1.39V48Z" transform="translate(-1.23 -0.39)" style="fill: #bdd546"/>
      <path d="M51.09,48l3.67-9.94H56L59.61,48h-1.5l-2.76-8L52.6,48Zm1.69-2.18V44.49H58v1.33Z" transform="translate(-1.23 -0.39)" style="fill: #bdd546"/>
      <path d="M61.12,48V38.06h1.26l4.86,7.62-.16.17V38.06h1.38V48H67.18l-4.85-7.5.17-.17V48Z" transform="translate(-1.23 -0.39)" style="fill: #bdd546"/>
      <path d="M74.17,48.1a3.49,3.49,0,0,1-1.82-.46,3.2,3.2,0,0,1-1.21-1.29,4.31,4.31,0,0,1-.43-2V41.67a4.32,4.32,0,0,1,.43-2,3.2,3.2,0,0,1,1.21-1.29A3.49,3.49,0,0,1,74.17,38a3.34,3.34,0,0,1,2.77,1.4,3.8,3.8,0,0,1,.66,1.55H76.17a2.12,2.12,0,0,0-.44-.84,2.1,2.1,0,0,0-.71-.55A2,2,0,0,0,72.7,40a2.53,2.53,0,0,0-.56,1.71V44.4a2.52,2.52,0,0,0,.56,1.7,1.84,1.84,0,0,0,1.47.64,2.24,2.24,0,0,0,1.23-.37,1.83,1.83,0,0,0,.77-1.08H77.6a3.76,3.76,0,0,1-.66,1.48,3.27,3.27,0,0,1-1.2,1A3.39,3.39,0,0,1,74.17,48.1Z" transform="translate(-1.23 -0.39)" style="fill: #bdd546"/>
      <path d="M79.58,48V38.06H81V48Zm.68-8.61V38.06H86v1.33Zm0,4.34V42.4h4.95v1.33Zm0,4.27V46.67H86V48Z" transform="translate(-1.23 -0.39)" style="fill: #bdd546"/>
      <path d="M86.58,39.39V38.06h7v1.33ZM89.39,48V38.87h1.39V48Z" transform="translate(-1.23 -0.39)" style="fill: #bdd546"/>
      <path d="M98,48.1a3.6,3.6,0,0,1-1.83-.45,3.14,3.14,0,0,1-1.22-1.28,4.13,4.13,0,0,1-.44-1.93V41.62a4.13,4.13,0,0,1,.44-1.93,3.14,3.14,0,0,1,1.22-1.28,4,4,0,0,1,3.67,0A3.14,3.14,0,0,1,101,39.69a4.13,4.13,0,0,1,.44,1.93v2.82a4.13,4.13,0,0,1-.44,1.93,3.14,3.14,0,0,1-1.22,1.28A3.61,3.61,0,0,1,98,48.1Zm0-1.37a1.92,1.92,0,0,0,1.5-.62,2.29,2.29,0,0,0,.57-1.62V41.57A2.29,2.29,0,0,0,99.47,40a1.92,1.92,0,0,0-1.5-.62,2,2,0,0,0-1.5.62,2.33,2.33,0,0,0-.56,1.62v2.92a2.33,2.33,0,0,0,.56,1.62A2,2,0,0,0,98,46.73Z" transform="translate(-1.23 -0.39)" style="fill: #bdd546"/>
      <path d="M105.9,45.85l2-7.79h1l2,7.79,1.75-7.79h1.45L111.71,48h-1.42l-1.83-7-1.91,7h-1.42l-2.43-9.94h1.45Z" transform="translate(-1.23 -0.39)" style="fill: #bdd546"/>
      <path d="M117,38.06V48h-1.39V38.06Z" transform="translate(-1.23 -0.39)" style="fill: #bdd546"/>
      <path d="M119.43,48V38.06h1.27l4.86,7.62-.17.17V38.06h1.38V48H125.5l-4.85-7.5.16-.17V48Z" transform="translate(-1.23 -0.39)" style="fill: #bdd546"/>
    </g>
  </g>
</svg>
