<svg xmlns="http://www.w3.org/2000/svg" viewBox="0 0 136.88 47.71">
  <title>logo333</title>
  <g>
    <path d="M34.87,26.62A8.42,8.42,0,0,1,34.49,29a7,7,0,0,1-3.55,4.23,7.34,7.34,0,0,1-3.45.74H4.36a3.14,3.14,0,0,1-1.22-.23,2.93,2.93,0,0,1-1.62-1.62,3.13,3.13,0,0,1-.23-1.22V3.46a3.07,3.07,0,0,1,.23-1.2,3.1,3.1,0,0,1,.64-1,2.89,2.89,0,0,1,1-.66A3.14,3.14,0,0,1,4.36.39H24.75a8.2,8.2,0,0,1,2.41.4,7.38,7.38,0,0,1,2.4,1.28,7,7,0,0,1,1.85,2.29,7.34,7.34,0,0,1,.74,3.45V8.95a12.58,12.58,0,0,1-.54,3.48A11.51,11.51,0,0,1,29.88,16a10.8,10.8,0,0,1,1.93,1.52,9.79,9.79,0,0,1,1.58,2.06,11,11,0,0,1,1.08,2.65,12.51,12.51,0,0,1,.4,3.26v1.17Zm-6.09-1.17a5.81,5.81,0,0,0-.37-2.14,4.74,4.74,0,0,0-1.05-1.63,4.58,4.58,0,0,0-1.64-1,6.06,6.06,0,0,0-2.16-.36H9.82V14.13h11A6.06,6.06,0,0,0,23,13.76a4.49,4.49,0,0,0,2.68-2.67A6,6,0,0,0,26,8.95V7.8a1.14,1.14,0,0,0-1.27-1.31H7.38V27.91H27.49l0.4,0a0.87,0.87,0,0,0,.75-0.54,1.75,1.75,0,0,0,.14-0.77V25.45Z" transform="translate(-1.24 -0.39)" style="fill: #e4d757"/>
    <path d="M75.06,34h-22a9.08,9.08,0,0,1-1.82-.2,9.34,9.34,0,0,1-1.92-.62,8.89,8.89,0,0,1-1.82-1.09A7.39,7.39,0,0,1,46,30.47a8,8,0,0,1-1.07-2.2,9.31,9.31,0,0,1-.4-2.82V8.95a9.08,9.08,0,0,1,.2-1.82,9.34,9.34,0,0,1,.62-1.92,8.61,8.61,0,0,1,1.1-1.82,7.63,7.63,0,0,1,1.63-1.54A8.05,8.05,0,0,1,50.27.79a9.19,9.19,0,0,1,2.81-.4h22V6.48h-22a2.48,2.48,0,0,0-1.83.63A2.54,2.54,0,0,0,50.62,9V25.45a2.24,2.24,0,0,0,2.46,2.46h22V34Z" transform="translate(-1.24 -0.39)" style="fill: #fff"/>
    <path d="M128.54,0.39l-5.63,31.5a3.18,3.18,0,0,1-.84,1.62,3,3,0,0,1-1.59.87,3.12,3.12,0,0,1-1.82-.21A2.93,2.93,0,0,1,117.32,33L106.16,14.66,95,33A2.77,2.77,0,0,1,93.89,34a3.07,3.07,0,0,1-1.49.38,3,3,0,0,1-3-2.53L83.75,0.39h6.19l4,22.2,9.61-15.33a2.77,2.77,0,0,1,1.09-1.05,3.07,3.07,0,0,1,1.49-.37,3,3,0,0,1,1.48.38,3.16,3.16,0,0,1,1.13,1.05l9.56,15.33,4-22.2h6.19Z" transform="translate(-1.24 -0.39)" style="fill: #e4d757"/>
  </g>
  <g>
    <path d="M1.24,38.06H2.63V48H1.24V38.06Zm0.82,8.65H4.76a2.4,2.4,0,0,0,1.54-.4,1.39,1.39,0,0,0,.49-1.13v0a2,2,0,0,0-.17-0.87,1.2,1.2,0,0,0-.55-0.56,2.08,2.08,0,0,0-1-.2h-3V42.27h3a1.67,1.67,0,0,0,1.17-.36,1.65,1.65,0,0,0,0-2.19,2,2,0,0,0-1.31-.37H2.06V38.06h3.1a3.56,3.56,0,0,1,1.61.33,2.18,2.18,0,0,1,1,.93,3,3,0,0,1,.32,1.44,2.35,2.35,0,0,1-.2,1,2,2,0,0,1-.6.77,2.28,2.28,0,0,1-1,.43,2.2,2.2,0,0,1,1,.43,2.24,2.24,0,0,1,.67.84,2.59,2.59,0,0,1,.23,1.09v0a2.79,2.79,0,0,1-.36,1.42,2.39,2.39,0,0,1-1,1A3.38,3.38,0,0,1,5.28,48H2.06V46.71Z" transform="translate(-1.24 -0.39)" style="fill: #e4d757"/>
    <path d="M10.28,38.06h1.39V48H10.28V38.06Zm0.68,0h5.71v1.33H11V38.06Zm0,4.34h5v1.33H11V42.4Zm0,4.27h5.71V48H11V46.67Z" transform="translate(-1.24 -0.39)" style="fill: #e4d757"/>
    <path d="M20.92,48.1L20.27,48A5,5,0,0,1,18,46.87l0.87-1.07a3.93,3.93,0,0,0,1.25.74,4.35,4.35,0,0,0,1.48.25,3,3,0,0,0,1.67-.4,1.29,1.29,0,0,0,.59-1.13h0a1.2,1.2,0,0,0-.27-0.82,1.63,1.63,0,0,0-.7-0.45,7.8,7.8,0,0,0-1.1-.27H21.74l-0.1,0A10.81,10.81,0,0,1,20,43.29a2.29,2.29,0,0,1-1.07-.79,2.59,2.59,0,0,1-.44-1.62h0a2.88,2.88,0,0,1,.41-1.58,2.59,2.59,0,0,1,1.21-1,5.23,5.23,0,0,1,3-.23,5.15,5.15,0,0,1,1,.35,5.84,5.84,0,0,1,1,.58L24.29,40.1a4.65,4.65,0,0,0-1.13-.63A3.25,3.25,0,0,0,22,39.27a2.67,2.67,0,0,0-1.58.41,1.33,1.33,0,0,0-.56,1.15h0a1.1,1.1,0,0,0,.29.81,1.75,1.75,0,0,0,.72.43,10.91,10.91,0,0,0,1.21.29h0.25a8.23,8.23,0,0,1,1.51.44,2.35,2.35,0,0,1,1,.82,2.59,2.59,0,0,1,.41,1.54h0a2.73,2.73,0,0,1-.43,1.55,2.67,2.67,0,0,1-1.25,1,5.13,5.13,0,0,1-2,.34H20.92Z" transform="translate(-1.24 -0.39)" style="fill: #e4d757"/>
    <path d="M25.9,38.06h7v1.33h-7V38.06Zm2.81,0.81H30.1V48H28.71V38.87Z" transform="translate(-1.24 -0.39)" style="fill: #e4d757"/>
    <path d="M36.23,48.1l-0.78-.46a3.11,3.11,0,0,1-1.21-1.3,4.22,4.22,0,0,1-.43-1.95V41.67a4.22,4.22,0,0,1,.43-1.95,3.12,3.12,0,0,1,1.21-1.3A3.5,3.5,0,0,1,37.26,38a3.41,3.41,0,0,1,1.57.37,3.31,3.31,0,0,1,1.2,1,3.88,3.88,0,0,1,.65,1.55H39.26a2.22,2.22,0,0,0-.43-0.83,2.13,2.13,0,0,0-.71-0.56,2,2,0,0,0-1.91.1,2,2,0,0,0-.71.82,2.84,2.84,0,0,0-.25,1.23V44.4a2.84,2.84,0,0,0,.25,1.23,1.92,1.92,0,0,0,.71.82,1.94,1.94,0,0,0,1.07.29,2,2,0,0,0,.85-0.18A2,2,0,0,0,38.82,46a2.16,2.16,0,0,0,.43-0.86h1.43A3.85,3.85,0,0,1,40,46.7a3.34,3.34,0,0,1-1.2,1,3.39,3.39,0,0,1-1.57.37h-1Z" transform="translate(-1.24 -0.39)" style="fill: #fff"/>
    <path d="M42.67,38.06h1.39V48H42.67V38.06Zm0.87,4.38h5.52v1.33H43.54V42.44Zm4.78-4.38h1.39V48H48.31V38.06Z" transform="translate(-1.24 -0.39)" style="fill: #fff"/>
    <path d="M54.88,38.06h1.19L59.73,48h-1.5l-2.75-8-2.75,8h-1.5Zm-2,6.43h5.23v1.33H52.9V44.49Z" transform="translate(-1.24 -0.39)" style="fill: #fff"/>
    <path d="M61.23,38.06H62.5l4.86,7.68-0.16.18V38.06h1.38V48H67.3l-4.85-7.57,0.16-.18V48H61.23V38.06Z" transform="translate(-1.24 -0.39)" style="fill: #fff"/>
    <path d="M73.26,48.1l-0.78-.46a3.11,3.11,0,0,1-1.21-1.3,4.21,4.21,0,0,1-.43-1.95V41.67a4.21,4.21,0,0,1,.43-1.95,3.13,3.13,0,0,1,1.21-1.3A3.5,3.5,0,0,1,74.29,38a3.41,3.41,0,0,1,1.57.37,3.31,3.31,0,0,1,1.2,1,3.89,3.89,0,0,1,.65,1.55H76.29a2.21,2.21,0,0,0-.43-0.83,2.13,2.13,0,0,0-.71-0.56,2,2,0,0,0-1.91.1,2,2,0,0,0-.71.82,2.85,2.85,0,0,0-.25,1.23V44.4a2.85,2.85,0,0,0,.25,1.23,1.88,1.88,0,0,0,1.78,1.11,2,2,0,0,0,.85-0.18A2,2,0,0,0,75.85,46a2.15,2.15,0,0,0,.43-0.86h1.43a3.87,3.87,0,0,1-.66,1.55,3.35,3.35,0,0,1-1.2,1,3.4,3.4,0,0,1-1.57.37h-1Z" transform="translate(-1.24 -0.39)" style="fill: #fff"/>
    <path d="M79.7,38.06h1.39V48H79.7V38.06Zm0.68,0h5.71v1.33H80.38V38.06Zm0,4.34h5v1.33h-5V42.4Zm0,4.27h5.71V48H80.38V46.67Z" transform="translate(-1.24 -0.39)" style="fill: #fff"/>
    <path d="M86.7,38.06h7v1.33h-7V38.06Zm2.81,0.81H90.9V48H89.51V38.87Z" transform="translate(-1.24 -0.39)" style="fill: #fff"/>
    <path d="M96.26,47.65A3.11,3.11,0,0,1,95,46.36a4.1,4.1,0,0,1-.43-1.92V41.62A4.1,4.1,0,0,1,95,39.7a3.11,3.11,0,0,1,1.23-1.29,3.92,3.92,0,0,1,3.66,0,3.11,3.11,0,0,1,1.23,1.29,4.1,4.1,0,0,1,.43,1.92v2.82a4.1,4.1,0,0,1-.43,1.92,3.11,3.11,0,0,1-1.23,1.29A3.92,3.92,0,0,1,96.26,47.65Zm2.92-1.2a1.86,1.86,0,0,0,.72-0.79,2.59,2.59,0,0,0,.26-1.18V41.57a2.59,2.59,0,0,0-.26-1.18,1.86,1.86,0,0,0-.72-0.79,2.26,2.26,0,0,0-2.17,0,1.86,1.86,0,0,0-.72.79A2.59,2.59,0,0,0,96,41.57v2.91a2.59,2.59,0,0,0,.26,1.18,1.86,1.86,0,0,0,.72.79A2.26,2.26,0,0,0,99.18,46.45Z" transform="translate(-1.24 -0.39)" style="fill: #fff"/>
    <path d="M107.92,38.06h1l2,7.79,1.76-7.79h1.45L111.7,48h-1.42l-1.83-6.95L106.53,48h-1.42l-2.43-9.94h1.45l1.76,7.79Z" transform="translate(-1.24 -0.39)" style="fill: #e4d757"/>
    <path d="M117,48h-1.39V38.06H117V48Z" transform="translate(-1.24 -0.39)" style="fill: #e4d757"/>
    <path d="M119.42,38.06h1.26l4.86,7.68-0.16.18V38.06h1.38V48h-1.28l-4.85-7.57,0.16-.18V48h-1.38V38.06Z" transform="translate(-1.24 -0.39)" style="fill: #e4d757"/>
  </g>
  <path d="M138.12,37.92a4.48,4.48,0,1,1-.6-2.24A4.39,4.39,0,0,1,138.12,37.92Zm-0.87,0a3.61,3.61,0,1,0-1.06,2.55A3.48,3.48,0,0,0,137.25,37.92Zm-5.64-2.39h2.14a1.94,1.94,0,0,1,1.32.37,1.25,1.25,0,0,1,.41,1,1.22,1.22,0,0,1-.31.83,1.83,1.83,0,0,1-1,.51,1.3,1.3,0,0,1,.4.22,2.26,2.26,0,0,1,.38.49l0.77,1.38h-1.41a10.81,10.81,0,0,0-.92-1.63,0.65,0.65,0,0,0-.47-0.27l-0.15,0v1.88h-1.19V35.53Zm1.19,2h0.52a1.2,1.2,0,0,0,.73-0.17,0.52,0.52,0,0,0,.21-0.43,0.53,0.53,0,0,0-.2-0.43,1.09,1.09,0,0,0-.69-0.17H132.8v1.2Z" transform="translate(-1.24 -0.39)" style="fill: #f3f5fa"/>
</svg>
